<?xml version="1.0" encoding="UTF-8"?>
<svg version="1.1" xmlns="http://www.w3.org/2000/svg" width="206" height="302">
<path d="M0 0 C7.35486651 3.82453059 10.33952222 10.2592351 13.4375 17.5625 C13.88971924 18.60978271 13.88971924 18.60978271 14.35107422 19.67822266 C16.21728869 24.03867593 17.95536281 28.4349238 19.625 32.875 C21.34944974 37.44562892 23.30608832 41.74452224 25.55078125 46.078125 C28.6200298 52.26625955 31.30906869 58.63710999 34.09375 64.95703125 C35.20489349 67.46189351 36.34971625 69.9504 37.5 72.4375 C39.73890865 77.3285387 41.80480469 82.28602531 43.875 87.25 C46.60422854 93.79014003 49.45802997 100.24521263 52.49560547 106.64746094 C54.96587755 111.86983876 57.22493996 117.16897192 59.4765625 122.48828125 C61.03894277 126.08976808 62.69244322 129.6413041 64.375 133.1875 C67.45764494 139.69530598 70.25575972 146.30320913 73.01904297 152.9519043 C75.06875216 157.85864905 77.21428806 162.69896123 79.5 167.5 C82.5430434 173.89178066 85.29564803 180.38477526 88.00415039 186.92456055 C90.67194233 193.32791268 93.59236789 199.57627455 96.65234375 205.80078125 C99.4288567 212.39198156 99.18285149 219.02001375 99.1875 226.0625 C99.19974609 227.04283203 99.21199219 228.02316406 99.22460938 229.03320312 C99.22654297 229.98259766 99.22847656 230.93199219 99.23046875 231.91015625 C99.23457764 232.76746338 99.23868652 233.62477051 99.24291992 234.50805664 C98.87964986 238.23458677 98.03470245 241.11028771 95.16015625 243.58203125 C94.46792969 243.98808594 93.77570313 244.39414063 93.0625 244.8125 C92.37285156 245.23144531 91.68320313 245.65039062 90.97265625 246.08203125 C89 247 89 247 86 247 C86 247.66 86 248.32 86 249 C85.36835938 249.3403125 84.73671875 249.680625 84.0859375 250.03125 C72.75423232 256.17061765 61.6449257 262.54216132 50.75341797 269.42651367 C46.20829244 272.28501032 41.59111735 274.91910135 36.84765625 277.4375 C33.29786746 279.38525791 29.83874263 281.46655303 26.375 283.5625 C21.68954812 286.39512964 17.00513928 289.2031622 12.18359375 291.80078125 C10.50948408 292.72019389 8.8600304 293.68462309 7.22265625 294.66796875 C6.26230469 295.23128906 5.30195312 295.79460937 4.3125 296.375 C3.44238281 296.89835937 2.57226562 297.42171875 1.67578125 297.9609375 C-1.7902576 299.30687376 -3.43745173 299.04258885 -7 298 C-9.59646814 296.80090512 -12.04026128 295.39361962 -14.5 293.9375 C-15.20358643 293.53120361 -15.90717285 293.12490723 -16.63208008 292.70629883 C-18.07535983 291.87230637 -19.51653864 291.03466725 -20.95556641 290.19335938 C-23.85326655 288.50193851 -26.77094039 286.84614083 -29.6875 285.1875 C-31.44631145 284.17988934 -33.20511971 283.1722731 -34.96386719 282.16455078 C-37.2892983 280.83453802 -39.61721538 279.50893416 -41.9453125 278.18359375 C-51.01023917 273.01972174 -60.0496493 267.81943662 -69.03173828 262.51269531 C-73.39904238 259.93462078 -77.78283457 257.38868314 -82.1875 254.875 C-83.29996094 254.23691406 -84.41242188 253.59882813 -85.55859375 252.94140625 C-87.99759503 251.56548839 -90.44123122 250.22174216 -92.91015625 248.90234375 C-93.87369019 248.37761475 -93.87369019 248.37761475 -94.85668945 247.84228516 C-96.64372492 246.87030378 -98.43882067 245.91318406 -100.234375 244.95703125 C-103.46141604 242.6734895 -104.17452262 241.83331058 -105 238 C-105.26629721 234.57762954 -105.27887458 231.18126231 -105.25 227.75 C-105.25773437 226.84636719 -105.26546875 225.94273437 -105.2734375 225.01171875 C-105.24808265 216.2009067 -103.90169266 209.0616742 -99.6875 201.25 C-97.43766622 196.95643288 -95.40992382 192.68523029 -93.75 188.125 C-91.4931518 182.04607018 -88.85187581 176.19439844 -86.125 170.3125 C-81.38813109 160.08936186 -76.78880671 149.81230416 -72.25 139.5 C-71.94016174 138.79646393 -71.63032349 138.09292786 -71.31109619 137.36807251 C-68.55778853 131.11463183 -65.8110156 124.85835623 -63.07592773 118.59692383 C-62.76133606 117.87690186 -62.44674438 117.15687988 -62.12261963 116.41503906 C-61.52598459 115.04895817 -60.92980199 113.68267955 -60.33416748 112.31616211 C-58.77965663 108.75598389 -57.19408412 105.21300424 -55.5625 101.6875 C-53.30039418 96.75536763 -51.21285079 91.75748713 -49.125 86.75 C-46.45268084 80.35266774 -43.67617392 74.03408381 -40.71313477 67.765625 C-35.1565987 56.00655288 -29.85482878 44.13953565 -24.875 32.125 C-21.59352975 24.21904824 -17.93492916 16.60088848 -14 9 C-13.48695312 7.92105469 -12.97390625 6.84210937 -12.4453125 5.73046875 C-9.68845504 0.52224345 -5.69252579 -0.81321797 0 0 Z " fill="#4CBBB6" transform="translate(106,2)"/>
<path d="M0 0 C3.37652538 0.65255544 4.78794369 1.96545637 7.203125 4.42578125 C8.92744995 7.37872509 10.25102468 10.46535179 11.578125 13.61328125 C11.96532715 14.50168701 12.3525293 15.39009277 12.75146484 16.30541992 C15.48253863 22.60915198 18.09681258 28.96191961 20.67480469 35.32958984 C22.85213956 40.67683094 25.2427056 45.90021329 27.71923828 51.11450195 C29.48622499 54.84707472 31.14137472 58.60306569 32.703125 62.42578125 C34.75439974 67.4407484 37.0163074 72.33070604 39.3359375 77.2265625 C41.92532583 82.73731202 44.32480912 88.3211888 46.703125 93.92578125 C49.88644044 101.42583464 53.19440657 108.84224251 56.6953125 116.19921875 C61.64972597 126.80115017 61.64972597 126.80115017 61.765625 131.05078125 C61.82943359 132.12199219 61.82943359 132.12199219 61.89453125 133.21484375 C60.23262388 138.52919161 53.41488619 141.65321124 48.890625 144.30078125 C47.57261561 145.07761445 46.25493293 145.85500209 44.9375 146.6328125 C44.19951172 147.06674316 43.46152344 147.50067383 42.70117188 147.94775391 C38.76203524 150.27843541 34.84571659 152.64681902 30.92602539 155.01000977 C26.64187742 157.58966727 22.34989396 160.15607639 18.05615234 162.71972656 C16.29921764 163.77033924 14.54395687 164.82376452 12.79150391 165.88183594 C10.85127759 167.05263917 8.90401613 168.21037136 6.953125 169.36328125 C5.93734375 169.97042969 4.9215625 170.57757813 3.875 171.203125 C1.00589308 172.51603504 -0.68469094 172.83583253 -3.796875 172.42578125 C-7.0845441 170.25890843 -8.53967603 169.19737816 -9.796875 165.42578125 C-9.89501129 163.3064113 -9.9318915 161.18404232 -9.93731689 159.06240845 C-9.94028802 158.41408818 -9.94325914 157.76576791 -9.9463203 157.09780157 C-9.9550044 154.92147057 -9.95651529 152.74519461 -9.95800781 150.56884766 C-9.96263615 149.010034 -9.96766083 147.45122148 -9.97305298 145.89241028 C-9.9861765 141.65478448 -9.99262171 137.41717452 -9.99706364 133.17953157 C-9.99999412 130.53265323 -10.00409886 127.88577921 -10.00856781 125.23890305 C-10.02224191 116.95915803 -10.03190929 108.67942291 -10.0357697 100.39966738 C-10.04025197 90.83847953 -10.05780804 81.27743453 -10.0867703 71.71629012 C-10.10837567 64.32767462 -10.11847335 56.93909935 -10.11981082 49.55045259 C-10.12085957 45.13654171 -10.12678226 40.72276513 -10.14463043 36.30888748 C-10.16109162 32.15727647 -10.1632762 28.00590101 -10.15449142 23.85426903 C-10.15372003 22.33088107 -10.15807729 20.80748054 -10.16794968 19.28412437 C-10.18064236 17.20350885 -10.1748079 15.12373099 -10.16436768 13.04312134 C-10.16583424 11.87910608 -10.1673008 10.71509083 -10.1688118 9.51580238 C-9.31251152 2.40172826 -6.69327357 0.37042926 0 0 Z " fill="#E2E3E2" transform="translate(115.796875,89.57421875)"/>
<path d="M0 0 C1.39460718 2.78921437 1.10674895 5.04555703 1.08660889 8.16719055 C1.08075775 9.48373627 1.07490662 10.80028198 1.06887817 12.15672302 C1.05736379 13.62442057 1.04579582 15.0921177 1.03417969 16.55981445 C1.02571601 18.09877257 1.01776307 19.63773356 1.01028442 21.17669678 C0.9935398 24.4959476 0.97410636 27.81516843 0.95290375 31.13439369 C0.92035216 36.38247454 0.89960439 41.63055915 0.88165283 46.87870789 C0.87856637 47.7638025 0.8754799 48.64889711 0.87229991 49.56081277 C0.86599167 51.37095699 0.85970193 53.18110128 0.85343027 54.99124563 C0.81039401 67.21261727 0.75862489 79.43384516 0.67773438 91.6550293 C0.62329119 99.89424862 0.5865687 108.13333849 0.57022786 116.37272424 C0.56084485 120.73426718 0.54224173 125.09534476 0.50191498 129.45672035 C0.46408697 133.55995784 0.44950671 137.66261745 0.45275497 141.76602173 C0.44978258 143.27170741 0.43822375 144.77740441 0.41743088 146.28294945 C0.39028396 148.33997426 0.39406356 150.39473787 0.40545654 152.45185852 C0.39954876 153.60242391 0.39364098 154.75298929 0.38755417 155.9384203 C1.1945628 159.97260768 2.8324526 161.45928905 6 164 C9.18150892 164.87989974 9.18150892 164.87989974 12 165 C10 167 10 167 7.6875 167.375 C4.12692684 166.87817584 2.54958536 165.47876354 0 163 C-1.11696568 159.64910297 -1.125844 157.14163052 -1.12698364 153.60971069 C-1.12854363 152.95856816 -1.13010362 152.30742563 -1.13171089 151.6365515 C-1.13570515 149.45087471 -1.13253736 147.26526717 -1.12939453 145.07958984 C-1.13074924 143.5142869 -1.13252957 141.94898427 -1.13470459 140.38368225 C-1.13926985 136.12978826 -1.13749327 131.87591848 -1.1343255 127.62202406 C-1.13179813 123.17685854 -1.13414041 118.73169514 -1.13571167 114.28652954 C-1.13753188 106.82317736 -1.13513055 99.35983506 -1.13037109 91.89648438 C-1.12492478 83.25601929 -1.12669441 74.61557779 -1.1321975 65.97511327 C-1.13672811 58.56617924 -1.13737956 51.15725233 -1.13475883 43.74831736 C-1.13319628 39.31893631 -1.13300177 34.88956636 -1.13629532 30.460186 C-1.13917341 26.29879839 -1.13719951 22.13744135 -1.13140106 17.97605705 C-1.1300733 16.44454563 -1.13046785 14.91303165 -1.13266373 13.38152122 C-1.13537451 11.29975284 -1.13199509 9.21808397 -1.12698364 7.13632202 C-1.12660662 5.96861959 -1.12622959 4.80091717 -1.12584114 3.59782982 C-1 1 -1 1 0 0 Z " fill="#D9EFF0" transform="translate(107,95)"/>
<path d="M0 0 C1.32 0.99 2.64 1.98 4 3 C-2.11141157 7.03353164 -2.11141157 7.03353164 -6.3125 6.875 C-9 6 -9 6 -11 4 C-10.67 3.34 -10.34 2.68 -10 2 C-7.96875 1.62109375 -7.96875 1.62109375 -5.5 1.4375 C-2.45018475 1.4207737 -2.45018475 1.4207737 0 0 Z " fill="#60C1B7" transform="translate(108,294)"/>
<path d="M0 0 C0.66 0 1.32 0 2 0 C2.66 1.32 3.32 2.64 4 4 C4.99 3.34 5.98 2.68 7 2 C7 4.33333333 7 6.66666667 7 9 C7.99064378 11.74638299 9.05735753 14.45848287 10.125 17.17578125 C10.98926624 19.96535486 11.16886802 22.10285802 11 25 C8.82520132 20.71250528 6.88795371 16.33038232 4.9375 11.9375 C4.57333984 11.12216797 4.20917969 10.30683594 3.83398438 9.46679688 C3.48529297 8.68240234 3.13660156 7.89800781 2.77734375 7.08984375 C2.46015381 6.37691162 2.14296387 5.66397949 1.81616211 4.92944336 C1.13395478 3.31667503 0.55375342 1.66126026 0 0 Z " fill="#5DB7B0" transform="translate(138,129)"/>
<path d="M0 0 C1.32 0.33 2.64 0.66 4 1 C1.9426228 6.30586751 -0.4460694 10.53480514 -4 15 C-4.66 15 -5.32 15 -6 15 C-4.36041242 9.76727367 -2.61047965 4.84803364 0 0 Z " fill="#61C1BA" transform="translate(75,49)"/>
<path d="M0 0 C4.59978816 6.89968224 8.11955992 14.91410765 10 23 C10.66 23 11.32 23 12 23 C11.67 24.32 11.34 25.64 11 27 C8.09580293 23.58583976 6.57555946 19.8274466 5 15.6875 C4.50087723 14.39939932 4.00088009 13.11163711 3.5 11.82421875 C3.25636719 11.19563965 3.01273437 10.56706055 2.76171875 9.91943359 C1.5707778 6.91841509 0.28703308 3.96094218 -1 1 C-0.67 0.67 -0.34 0.34 0 0 Z " fill="#5FB6AE" transform="translate(124,94)"/>
<path d="M0 0 C3.73259486 3.21327731 5.46198587 6.76171963 7.25 11.25 C7.518125 11.8996875 7.78625 12.549375 8.0625 13.21875 C8.71725016 14.80885754 9.35987282 16.40394958 10 18 C9.34 18.33 8.68 18.66 8 19 C4.55551907 15.22747326 3.46731293 10.77288868 2 6 C1.608125 4.824375 1.21625 3.64875 0.8125 2.4375 C0.544375 1.633125 0.27625 0.82875 0 0 Z " fill="#C5E8E6" transform="translate(120,92)"/>
<path d="M0 0 C2.08193187 2.08193187 2.96575384 3.71979715 4.1875 6.375 C4.55230469 7.14585938 4.91710937 7.91671875 5.29296875 8.7109375 C6.08442558 11.27333365 5.89234179 12.51053693 5 15 C1.06153846 11.67692308 1.06153846 11.67692308 0.75 8.25 C0.87375 7.13625 0.87375 7.13625 1 6 C0.34 5.67 -0.32 5.34 -1 5 C-0.67 3.35 -0.34 1.7 0 0 Z " fill="#69C0B9" transform="translate(140,69)"/>
<path d="M0 0 C6.35227273 0.48863636 6.35227273 0.48863636 9.375 2.875 C11 5 11 5 12 8 C7.69235185 6.43358249 3.93828536 4.31663844 0 2 C0 1.34 0 0.68 0 0 Z " fill="#77C7C2" transform="translate(62,277)"/>
<path d="M0 0 C0.66 0 1.32 0 2 0 C2.875 2.6875 2.875 2.6875 3 6 C1.20703368 8.13500912 -0.67836428 9.38906909 -3 11 C-2.53199289 6.94393835 -2.12046792 3.53411321 0 0 Z " fill="#47B6AE" transform="translate(29,152)"/>
<path d="M0 0 C1.32 0.33 2.64 0.66 4 1 C1.54732365 2.53068488 -0.91133894 4.04968623 -3.375 5.5625 C-4.07367188 6.00013672 -4.77234375 6.43777344 -5.4921875 6.88867188 C-7.29185903 7.98750978 -9.14322343 9.00067867 -11 10 C-11.66 9.67 -12.32 9.34 -13 9 C-11.35 8.34 -9.7 7.68 -8 7 C-8 6.34 -8 5.68 -8 5 C-7.01 5 -6.02 5 -5 5 C-4.67 4.01 -4.34 3.02 -4 2 C-2.68 2 -1.36 2 0 2 C0 1.34 0 0.68 0 0 Z " fill="#CAE9E8" transform="translate(142,244)"/>
<path d="M0 0 C0.66 0 1.32 0 2 0 C2.75 2.25 2.75 2.25 3 5 C0.79965786 7.82901133 -0.58119536 8.86039845 -4 10 C-3.52449439 8.51965236 -3.04448784 7.04074979 -2.5625 5.5625 C-2.29566406 4.73878906 -2.02882812 3.91507812 -1.75390625 3.06640625 C-1 1 -1 1 0 0 Z " fill="#6CC3BE" transform="translate(62,78)"/>
<path d="M0 0 C0.66 0 1.32 0 2 0 C2.67119549 1.4562545 3.33681807 2.91507867 4 4.375 C4.556875 5.59316406 4.556875 5.59316406 5.125 6.8359375 C6 9 6 9 6 11 C5.01 11 4.02 11 3 11 C2.67 9.68 2.34 8.36 2 7 C1.34 7.66 0.68 8.32 0 9 C0 6.03 0 3.06 0 0 Z " fill="#71C4BF" transform="translate(184,170)"/>
<path d="M0 0 C0.66 0 1.32 0 2 0 C2.7425 0.804375 3.485 1.60875 4.25 2.4375 C7.30812904 5.28712024 8.91099938 5.71472089 13 6 C11 8 11 8 8.6875 8.375 C5.09958528 7.87436074 3.53813583 6.53813583 1 4 C0.1875 1.75 0.1875 1.75 0 0 Z " fill="#CAE9EA" transform="translate(106,254)"/>
<path d="M0 0 C0.66 0 1.32 0 2 0 C2 0.99 2 1.98 2 3 C2.66 3.33 3.32 3.66 4 4 C2.35 5.65 0.7 7.3 -1 9 C-1.80967438 6.08517222 -2.21845993 4.53886783 -1.0625 1.6875 C-0.711875 1.130625 -0.36125 0.57375 0 0 Z " fill="#58BEB3" transform="translate(90,15)"/>
<path d="M0 0 C1.98 0 3.96 0 6 0 C6 0.66 6 1.32 6 2 C7.65 2 9.3 2 11 2 C10.67 3.32 10.34 4.64 10 6 C6.40992874 4.66654496 3.20429093 3.1056769 0 1 C0 0.67 0 0.34 0 0 Z " fill="#6EC3BC" transform="translate(87,292)"/>
<path d="M0 0 C1.98 0 3.96 0 6 0 C2.81404865 2.63978826 -0.30970546 5.10498388 -4 7 C-4.66 6.67 -5.32 6.34 -6 6 C-4 3 -4 3 -1 2 C-0.67 1.34 -0.34 0.68 0 0 Z " fill="#76C6C0" transform="translate(141,276)"/>
<path d="M0 0 C2.375 1.5 2.375 1.5 4 3 C3.41992188 2.98839844 2.83984375 2.97679687 2.2421875 2.96484375 C-2.2998246 2.91237826 -6.52713569 3.08248937 -11 4 C-7.42422202 0.26168666 -5.24882778 -0.41990622 0 0 Z " fill="#86CAC7" transform="translate(106,2)"/>
<path d="M0 0 C1.67588141 2.51382212 2.94030311 4.82947288 4.1875 7.5625 C4.55230469 8.34753906 4.91710937 9.13257813 5.29296875 9.94140625 C5.52628906 10.62074219 5.75960937 11.30007812 6 12 C5.67 12.66 5.34 13.32 5 14 C4.67 13.01 4.34 12.02 4 11 C3.01 10.67 2.02 10.34 1 10 C0.67 6.7 0.34 3.4 0 0 Z " fill="#C8E2E3" transform="translate(151,159)"/>
<path d="M0 0 C2.475 0.99 2.475 0.99 5 2 C4.01 3.485 4.01 3.485 3 5 C3.33 5.66 3.66 6.32 4 7 C1.525 6.01 1.525 6.01 -1 5 C-1 2 -1 2 0 0 Z " fill="#64BFBB" transform="translate(11,244)"/>
<path d="M0 0 C2.42522207 2.42522207 2.29629254 3.1720679 2.3125 6.5 C2.32925781 7.2940625 2.34601563 8.088125 2.36328125 8.90625 C2.18345703 9.94265625 2.18345703 9.94265625 2 11 C1.01 11.66 0.02 12.32 -1 13 C-1 11.68 -1 10.36 -1 9 C-0.34 9 0.32 9 1 9 C0.649375 8.2575 0.29875 7.515 -0.0625 6.75 C-1.04509293 3.8677274 -1.0326802 2.78823655 0 0 Z " fill="#D1ECEA" transform="translate(175,214)"/>
<path d="M0 0 C2.67901932 2.31881505 3.66204403 4.31814468 4.6875 7.6875 C4.93886719 8.49574219 5.19023437 9.30398437 5.44921875 10.13671875 C5.63097656 10.75160156 5.81273437 11.36648437 6 12 C5.34 12 4.68 12 4 12 C4 11.01 4 10.02 4 9 C3.34 9 2.68 9 2 9 C0.50178941 5.62902617 0 3.79557881 0 0 Z " fill="#C8E6E5" transform="translate(163,188)"/>
<path d="M0 0 C3.01468588 2.00979059 3.83789182 2.70736015 5 6 C4.625 8.25 4.625 8.25 4 10 C0.06153846 5.69230769 0.06153846 5.69230769 -0.25 2.1875 C-0.1675 1.465625 -0.085 0.74375 0 0 Z " fill="#6AC0BB" transform="translate(163,123)"/>
<path d="M0 0 C1.32 0.99 2.64 1.98 4 3 C2.68 3.99 1.36 4.98 0 6 C-2 5 -2 5 -3 2 C-2.01 1.34 -1.02 0.68 0 0 Z " fill="#77C9C2" transform="translate(108,294)"/>
<path d="M0 0 C0.66 0 1.32 0 2 0 C2.268125 0.969375 2.53625 1.93875 2.8125 2.9375 C3.204375 3.948125 3.59625 4.95875 4 6 C4.99 6.33 5.98 6.66 7 7 C5 8 5 8 2.9375 7.4375 C1 6 1 6 0.25 2.875 C0.1675 1.92625 0.085 0.9775 0 0 Z " fill="#6DBFBA" transform="translate(2,239)"/>
<path d="M0 0 C1.5625 1.75 1.5625 1.75 3 4 C2.6875 6.25 2.6875 6.25 2 8 C1.67 7.34 1.34 6.68 1 6 C0.34 6 -0.32 6 -1 6 C-1.33 4.35 -1.66 2.7 -2 1 C-1.34 0.67 -0.68 0.34 0 0 Z " fill="#74C5BE" transform="translate(120,24)"/>
<path d="M0 0 C-4.95 2.475 -4.95 2.475 -10 5 C-9 2 -9 2 -6.6875 0.25 C-4 -1 -4 -1 0 0 Z " fill="#C7E7E6" transform="translate(163,235)"/>
<path d="M0 0 C0.99 0.66 1.98 1.32 3 2 C2.01 2.33 1.02 2.66 0 3 C-0.33 3.66 -0.66 4.32 -1 5 C-2.32 4.34 -3.64 3.68 -5 3 C-3.35 2.01 -1.7 1.02 0 0 Z " fill="#58B9B0" transform="translate(173,228)"/>
<path d="M0 0 C0.66 0 1.32 0 2 0 C2.66 2.31 3.32 4.62 4 7 C3.01 7.495 3.01 7.495 2 8 C0.23537317 4.91190305 0 3.76687864 0 0 Z " fill="#72C0B9" transform="translate(199,204)"/>
<path d="M0 0 C1.99097846 2.98646769 2.94124926 5.59687262 4 9 C3.01 9.495 3.01 9.495 2 10 C2 9.01 2 8.02 2 7 C1.34 7 0.68 7 0 7 C0 4.69 0 2.38 0 0 Z " fill="#CBE5E7" transform="translate(139,132)"/>
<path d="M0 0 C1.65 0.33 3.3 0.66 5 1 C5 1.99 5 2.98 5 4 C1.89448334 4 0.64738916 3.4606285 -2 2 C-1.34 2 -0.68 2 0 2 C0 1.34 0 0.68 0 0 Z " fill="#5DBDB7" transform="translate(107,5)"/>
<path d="M0 0 C-1.3125 1.5 -1.3125 1.5 -3 3 C-3.99 3 -4.98 3 -6 3 C-6 3.66 -6 4.32 -6 5 C-6.66 4.67 -7.32 4.34 -8 4 C-7.67 3.01 -7.34 2.02 -7 1 C-4.53721199 -0.231394 -2.7204945 -0.07159196 0 0 Z " fill="#80C6C1" transform="translate(198,246)"/>
<path d="M0 0 C2.50298434 2.93828597 3.46930939 5.17902761 4 9 C3.01 9 2.02 9 1 9 C0.67 6.03 0.34 3.06 0 0 Z " fill="#7DC5C0" transform="translate(180,159)"/>
<path d="M0 0 C0.33 0 0.66 0 1 0 C0.125 6.75 0.125 6.75 -1 9 C-1.66 9 -2.32 9 -3 9 C-2.01 6.03 -1.02 3.06 0 0 Z " fill="#78C6C1" transform="translate(29,152)"/>
<path d="" fill="#FFFFFF" transform="translate(0,0)"/>
<path d="" fill="#FFFFFF" transform="translate(0,0)"/>
<path d="" fill="#FFFFFF" transform="translate(0,0)"/>
<path d="" fill="#FFFFFF" transform="translate(0,0)"/>
<path d="" fill="#FFFFFF" transform="translate(0,0)"/>
<path d="" fill="#FFFFFF" transform="translate(0,0)"/>
<path d="" fill="#FFFFFF" transform="translate(0,0)"/>
<path d="" fill="#FFFFFF" transform="translate(0,0)"/>
<path d="" fill="#FFFFFF" transform="translate(0,0)"/>
<path d="" fill="#FFFFFF" transform="translate(0,0)"/>
<path d="" fill="#FFFFFF" transform="translate(0,0)"/>
</svg>
